<?xml version="1.0" encoding="utf-8"?>
<!-- Generator: Adobe Illustrator 19.2.0, SVG Export Plug-In . SVG Version: 6.00 Build 0)  -->
<svg version="1.1" id="Layer_1" xmlns="http://www.w3.org/2000/svg" xmlns:xlink="http://www.w3.org/1999/xlink" x="0px" y="0px"
	 viewBox="0 0 500 120" style="enable-background:new 0 0 500 120;" xml:space="preserve">
<style type="text/css">
	.st0{fill:#231F20;}
	.st1{fill:#8A8B8C;}
	.st2{fill:#C2C0BF;}
	.st3{fill:#575757;}
	.st4{fill:#666666;}
	.st5{fill:#D1CFCE;}
	.st6{fill:#A3A4A5;}
	.st7{fill:#737373;}
	.st8{fill:#999A9B;}
	.st9{fill:#7D7D7D;}
	.st10{fill:#7A7A7A;}
</style>
<g id="divider">
</g>
<g id="OfficeName_x5F_On">
</g>
<g id="OfficeName_x5F_Off">
</g>
<g id="MITLogo_x5F_On">
	<rect x="194.1" y="0.9" class="st0" width="2.2" height="119.1"/>
	<g>
		<rect x="114.7" y="18.5" class="st1" width="44.1" height="17.6"/>
		<rect x="28.7" y="18.5" class="st1" width="17.6" height="57.4"/>
		<rect x="57.4" y="18.5" class="st1" width="17.6" height="83.8"/>
		<rect y="18.5" class="st1" width="17.6" height="83.8"/>
		<rect x="114.7" y="47.2" class="st1" width="17.6" height="55.2"/>
		<rect x="86" y="18.5" class="st1" width="17.6" height="17.6"/>
		<rect x="86" y="47.2" class="st2" width="17.6" height="55.2"/>
	</g>
	<g>
		<polygon class="st3" points="294.9,9.3 294.9,28 294.9,28 283.6,34.5 278.8,37.3 273.9,34.4 262.7,28 262.7,9.3 278.8,0 		"/>
		<polygon class="st3" points="231.1,33 242.4,26.5 253.7,33 253.7,46.1 242.4,52.6 231.1,46.1 		"/>
		<polygon class="st3" points="231.1,75 242.4,68.4 253.7,75 253.7,88 242.4,94.5 231.1,88 		"/>
		<polygon class="st3" points="303.7,33 314.9,26.5 326.2,33 326.2,46.1 314.9,52.6 303.7,46.1 		"/>
		<polygon class="st3" points="303.7,75 314.9,68.4 326.2,75 326.2,88 314.9,94.5 303.7,88 		"/>
		<polygon class="st3" points="271.5,98.2 278.7,94 285.9,98.2 285.9,106.5 278.7,110.7 271.5,106.5 		"/>
		<g>
			<polyline class="st1" points="242.5,81.5 242.5,39.5 254.5,81.5 			"/>
			<polyline class="st4" points="314.9,81.5 314.9,39.5 302.9,81.5 			"/>
			<polygon class="st5" points="254.5,81.5 278.7,39.5 302.9,81.5 			"/>
			<polyline class="st2" points="254.5,81.5 242.5,39.5 278.7,39.5 			"/>
			<polygon class="st6" points="278.7,102.2 254.5,81.5 302.9,81.5 			"/>
			<polyline class="st7" points="278.7,102.2 314.9,81.5 302.9,81.5 			"/>
			<g>
				<polyline class="st8" points="302.9,81.5 314.9,39.5 278.7,39.5 				"/>
				<polyline class="st9" points="278.7,102.2 242.5,81.5 254.5,81.5 				"/>
				<polyline class="st1" points="242.5,39.5 278.7,18.6 278.7,39.5 242.5,39.5 				"/>
			</g>
			<polyline class="st10" points="314.9,39.5 278.7,18.6 278.7,39.5 314.9,39.5 			"/>
		</g>
	</g>
	<g>
		<g>
			<g>
				<path class="st1" d="M362.8,33.4c0,3.5-2.7,5.6-7.1,5.6h-0.1c-2.3,0-4.7-0.6-6.6-1.6l-0.7-0.4v-3.9l2.1,1.2
					c1.4,0.8,3.3,1.3,5.1,1.3c2.5,0,3.7-0.7,3.7-2.1c0-1.6-1.3-2.2-4.3-3.2c-2.9-1-6.5-2.2-6.5-6.2c0-3.4,2.7-5.6,6.8-5.6
					c2,0,4.1,0.5,5.6,1.3l0.7,0.4v3.9l-2.2-1.2c-1-0.6-2.6-1-4-1h-0.1c-0.8,0-3.4,0.2-3.4,2.1c0,1.4,1.3,2,4.2,3
					C358.9,27.9,362.8,29.2,362.8,33.4z"/>
			</g>
			<g>
				<path class="st1" d="M381.5,33.3v4l-0.7,0.4c-1.6,0.9-3.6,1.4-5.8,1.4c-5.1,0-10.3-3.5-10.3-10.1c0-6.8,5.3-10.5,10.3-10.5
					c2,0,4,0.5,5.6,1.4l0.7,0.4v4l-2.2-1.3c-1.1-0.6-2.6-1-4-1c-3.3,0-6.9,2.2-6.9,7.1c0,4.6,3.5,6.6,6.9,6.6c1.6,0,3-0.3,4.2-1
					L381.5,33.3z"/>
			</g>
			<g>
				<polygon class="st1" points="401.3,18.7 401.3,38.8 397.8,38.8 397.8,30.4 388.1,30.4 388.1,38.8 384.7,38.8 384.7,18.7 
					388.1,18.7 388.1,26.9 397.8,26.9 397.8,18.7 				"/>
			</g>
			<g>
				<polygon class="st1" points="420.4,35.3 420.4,38.8 406,38.8 406,18.7 420.2,18.7 420.2,22.1 409.5,22.1 409.5,26.9 419.4,26.9 
					419.4,30.4 409.5,30.4 409.5,35.3 				"/>
			</g>
			<g>
				<polygon class="st1" points="438.1,35.3 438.1,38.8 424,38.8 424,18.7 427.5,18.7 427.5,35.3 				"/>
			</g>
			<g>
				<polygon class="st1" points="454.8,35.3 454.8,38.8 440.7,38.8 440.7,18.7 444.2,18.7 444.2,35.3 				"/>
			</g>
			<g>
				<polygon class="st1" points="471.7,35.3 471.7,38.8 457.4,38.8 457.4,18.7 471.5,18.7 471.5,22.1 460.9,22.1 460.9,26.9 
					470.7,26.9 470.7,30.4 460.9,30.4 460.9,35.3 				"/>
			</g>
			<g>
				<path class="st1" d="M486.6,31c2.6-1,4.2-3.1,4.2-5.9c0-4.5-3.8-6.5-7.5-6.5h-7.9v20.2h3.5v-7.3h3.6l6.6,7.3h4.7L486.6,31z
					 M487.3,25.1c0,2.6-2.5,3-4,3h-4.5v-6h4.5C484.5,22.1,487.3,22.4,487.3,25.1z"/>
			</g>
		</g>
		<g>
			<g>
				<polygon class="st8" points="360.1,45.4 360.1,47.6 355.3,47.6 355.3,59.7 353.1,59.7 353.1,47.6 348.3,47.6 348.3,45.4 				"/>
			</g>
			<g>
				<polygon class="st8" points="374.1,57.4 374.1,59.7 364,59.7 364,45.4 374,45.4 374,47.6 366.3,47.6 366.3,51.4 373.4,51.4 
					373.4,53.6 366.3,53.6 366.3,57.4 				"/>
			</g>
			<g>
				<path class="st8" d="M384.9,45.4h-1.7l-6.6,14.3h2.5l1.8-3.8h6.3l1.8,3.8h2.5L384.9,45.4z M381.9,53.6l2.2-4.7l2.2,4.7H381.9z"
					/>
			</g>
			<g>
				<path class="st8" d="M405.3,56.1v2.5l-0.4,0.3c-1.1,0.7-2.5,1-4.1,1c-3.6,0-7.3-2.5-7.3-7.2c0-4.9,3.8-7.5,7.3-7.5
					c1.4,0,2.8,0.3,3.9,1l0.5,0.3V49l-1.4-0.8c-0.8-0.5-1.9-0.8-3-0.8c-2.5,0-5.1,1.6-5.1,5.3c0,3.4,2.6,4.9,5.1,4.9
					c1.2,0,2.2-0.2,3.1-0.8L405.3,56.1z"/>
			</g>
			<g>
				<polygon class="st8" points="421.4,45.4 421.4,59.7 419.2,59.7 419.2,53.6 411.9,53.6 411.9,59.7 409.7,59.7 409.7,45.4 
					411.9,45.4 411.9,51.4 419.2,51.4 419.2,45.4 				"/>
			</g>
			<g>
				<polygon class="st8" points="437,57.4 437,59.7 426.9,59.7 426.9,45.4 436.9,45.4 436.9,47.6 429.2,47.6 429.2,51.4 436.3,51.4 
					436.3,53.6 429.2,53.6 429.2,57.4 				"/>
			</g>
			<g>
				<path class="st8" d="M449.5,54.1c2-0.6,3.1-2.2,3.1-4.2c0-3.1-2.7-4.5-5.3-4.5h-5.6v14.3h2.2v-5.3h2.8l4.7,5.3h3L449.5,54.1z
					 M444,47.6h3.4c0.9,0,3,0.2,3,2.3c0,2.1-2.1,2.3-3,2.3H444V47.6z"/>
			</g>
			<g>
				<polygon class="st8" points="358.4,78.9 358.4,81.1 348.3,81.1 348.3,66.8 358.2,66.8 358.2,69 350.5,69 350.5,72.8 357.7,72.8 
					357.7,75 350.5,75 350.5,78.9 				"/>
			</g>
			<g>
				<path class="st8" d="M367.5,66.8H363v14.3h4.5c4.6,0,7.5-2.7,7.5-7.1C375,69.5,372.2,66.8,367.5,66.8z M367.5,78.9h-2.2V69h2.2
					c3.4,0,5.3,1.7,5.3,4.9C372.8,77.1,370.9,78.9,367.5,78.9z"/>
			</g>
			<g>
				<path class="st8" d="M391.2,66.8v9.1c0,3.4-2.1,5.4-5.9,5.4c-3.7,0-5.9-2-5.9-5.4v-9.1h2.3v9.1c0,1.5,0.4,3.2,3.6,3.2
					c3.2,0,3.6-1.7,3.6-3.2v-9.1H391.2z"/>
			</g>
			<g>
				<path class="st8" d="M407.5,77.5V80l-0.4,0.3c-1.1,0.7-2.5,1-4.1,1c-3.6,0-7.3-2.5-7.3-7.2c0-4.9,3.8-7.5,7.3-7.5
					c1.4,0,2.8,0.3,3.9,1l0.5,0.3v2.5l-1.4-0.8c-0.8-0.5-1.9-0.8-3-0.8c-2.5,0-5.1,1.6-5.1,5.3c0,3.4,2.6,4.9,5.1,4.9
					c1.2,0,2.2-0.2,3.1-0.8L407.5,77.5z"/>
			</g>
			<g>
				<path class="st8" d="M418.1,66.8h-1.7l-6.6,14.3h2.5l1.8-3.8h6.3l1.8,3.8h2.5L418.1,66.8z M415.1,75l2.2-4.7l2.2,4.7H415.1z"/>
			</g>
			<g>
				<polygon class="st8" points="436.8,66.8 436.8,69 432,69 432,81.1 429.7,81.1 429.7,69 424.9,69 424.9,66.8 				"/>
			</g>
			<g>
				<rect x="440.7" y="66.8" class="st8" width="2.3" height="14.3"/>
			</g>
			<g>
				<path class="st8" d="M454.8,66.6c-4.8,0-7.3,3.7-7.3,7.3c0,3.6,2.5,7.3,7.3,7.3c4.8,0,7.3-3.7,7.3-7.3
					C462.2,70.3,459.7,66.6,454.8,66.6z M454.8,79c-3.5,0-5.1-2.6-5.1-5.1c0-2.4,1.6-5.1,5.1-5.1c3.5,0,5.1,2.6,5.1,5.1
					C459.9,76.4,458.3,79,454.8,79z"/>
			</g>
			<g>
				<polygon class="st8" points="478.5,66.8 478.5,81.1 476.8,81.1 469,71.1 469,81.1 466.7,81.1 466.7,66.8 468.5,66.8 476.2,76.8 
					476.2,66.8 				"/>
			</g>
			<g>
				<path class="st8" d="M353,88.2h-4.8v14.3h2.3v-4.7h2.5c5.3,0,6.1-3,6.1-4.8C359.2,91.2,358.4,88.2,353,88.2z M353.1,95.5h-2.5
					v-5.1h2.5c3.4,0,3.8,1.4,3.8,2.5C356.9,94.2,356.5,95.5,353.1,95.5z"/>
			</g>
			<g>
				<path class="st8" d="M371.2,96.9c2-0.6,3.1-2.2,3.1-4.2c0-3.1-2.7-4.5-5.3-4.5h-5.6v14.3h2.3v-5.2h2.8l4.7,5.2h3L371.2,96.9z
					 M372.1,92.7c0,2.1-2.1,2.3-3,2.3h-3.4v-4.6h3.4C370,90.4,372.1,90.7,372.1,92.7z"/>
			</g>
			<g>
				<path class="st8" d="M385.6,88c-4.8,0-7.3,3.7-7.3,7.3c0,3.6,2.5,7.3,7.3,7.3c4.8,0,7.4-3.7,7.4-7.3
					C392.9,91.7,390.4,88,385.6,88z M385.6,100.5c-3.5,0-5.1-2.6-5.1-5.1c0-2.5,1.6-5.1,5.1-5.1c3.5,0,5.1,2.6,5.1,5.1
					C390.7,97.8,389.1,100.5,385.6,100.5z"/>
			</g>
			<g>
				<path class="st8" d="M408.9,94.2v7.3l-0.5,0.2c-1.3,0.6-2.7,0.9-4.2,0.9c-3.8,0-7.6-2.3-7.6-7.3c0-5.1,3.7-7.3,7.5-7.3
					c1.4,0,2.9,0.3,4,0.9l0.5,0.2v2.5l-1.3-0.7c-0.9-0.5-2-0.7-3.1-0.7c-2.5,0-5.3,1.3-5.3,5.1c0,3.7,2.8,5.1,5.4,5.1
					c0.9,0,1.7-0.1,2.5-0.4v-5.9L408.9,94.2L408.9,94.2z"/>
			</g>
			<g>
				<path class="st8" d="M421.5,96.9c2-0.6,3.1-2.2,3.1-4.2c0-3.1-2.7-4.5-5.3-4.5h-5.6v14.3h2.3v-5.2h2.8l4.7,5.2h3L421.5,96.9z
					 M416,90.4h3.4c0.9,0,3,0.2,3,2.3c0,2.1-2.1,2.3-3,2.3H416V90.4z"/>
			</g>
			<g>
				<path class="st8" d="M435.6,88.2H434l-6.6,14.3h2.5l1.8-3.8h6.3l1.8,3.8h2.5L435.6,88.2z M432.7,96.4l2.2-4.7l2.2,4.7H432.7z"/>
			</g>
			<g>
				<polygon class="st8" points="459.7,88.2 459.7,102.5 457.4,102.5 457.4,92.9 453.3,99 452,99 447.9,92.9 447.9,102.5 
					445.6,102.5 445.6,88.2 447.3,88.2 452.6,96 458,88.2 				"/>
			</g>
		</g>
	</g>
</g>
<g id="MITLogo_x5F_Off">
</g>
</svg>
