<?xml version="1.0" encoding="iso-8859-1"?>
<!-- Generator: Adobe Illustrator 16.0.4, SVG Export Plug-In . SVG Version: 6.00 Build 0)  -->
<!DOCTYPE svg PUBLIC "-//W3C//DTD SVG 1.1//EN" "http://www.w3.org/Graphics/SVG/1.1/DTD/svg11.dtd">
<svg version="1.1" xmlns="http://www.w3.org/2000/svg" xmlns:xlink="http://www.w3.org/1999/xlink" x="0px" y="0px" width="300px"
	 height="120px" viewBox="0 0 300 120" style="enable-background:new 0 0 300 120;" xml:space="preserve">
<g id="divider">
</g>
<g id="OfficeName_x5F_On">
</g>
<g id="OfficeName_x5F_Off">
</g>
<g id="MITLogo_x5F_On">
	<rect x="124" y="28" style="fill:#231F20;" width="1" height="54"/>
	<g>
		<rect x="88" y="36" style="fill:#8A8B8C;" width="20" height="8"/>
		<rect x="49" y="36" style="fill:#8A8B8C;" width="8" height="26"/>
		<rect x="62" y="36" style="fill:#8A8B8C;" width="8" height="38"/>
		<rect x="36" y="36" style="fill:#8A8B8C;" width="8" height="38"/>
		<rect x="88" y="49" style="fill:#8A8B8C;" width="8" height="25"/>
		<rect x="75" y="36" style="fill:#8A8B8C;" width="8" height="8"/>
		<rect x="75" y="49" style="fill:#C2C0BF;" width="8" height="25"/>
	</g>
	<g>
		<polygon style="fill:#575757;" points="169.697,31.828 169.697,40.277 169.668,40.293 164.56,43.242 162.378,44.502 
			160.137,43.209 155.062,40.276 155.062,31.828 162.378,27.604 		"/>
		<polygon style="fill:#575757;" points="140.777,42.583 145.886,39.634 150.995,42.583 150.995,48.482 145.886,51.432 
			140.777,48.482 		"/>
		<polygon style="fill:#575757;" points="140.777,61.58 145.886,58.631 150.995,61.58 150.995,67.479 145.886,70.428 
			140.777,67.479 		"/>
		<polygon style="fill:#575757;" points="173.647,42.583 178.756,39.634 183.864,42.583 183.864,48.482 178.756,51.432 
			173.647,48.482 		"/>
		<polygon style="fill:#575757;" points="173.647,61.58 178.756,58.631 183.864,61.58 183.864,67.479 178.756,70.429 
			173.647,67.479 		"/>
		<polygon style="fill:#575757;" points="159.053,72.119 162.321,70.234 165.588,72.12 165.588,75.893 162.321,77.78 
			159.053,75.893 		"/>
		<g>
			<polyline style="fill:#8A8B8C;" points="145.914,64.527 145.914,45.524 151.348,64.527 			"/>
			<polyline style="fill:#666666;" points="178.727,64.527 178.727,45.524 173.293,64.527 			"/>
			<polygon style="fill:#D1CFCE;" points="151.348,64.527 162.321,45.524 173.293,64.527 			"/>
			<polyline style="fill:#C2C0BF;" points="151.348,64.527 145.914,45.524 162.321,45.524 			"/>
			<polygon style="fill:#A3A4A5;" points="162.32,73.941 151.348,64.527 173.293,64.527 			"/>
			<polyline style="fill:#737373;" points="162.321,73.941 178.726,64.527 173.292,64.527 			"/>
			<g>
				<polyline style="fill:#999A9B;" points="173.293,64.527 178.727,45.524 162.321,45.524 				"/>
				<polyline style="fill:#7D7D7D;" points="162.32,73.941 145.914,64.527 151.348,64.527 				"/>
				<polyline style="fill:#8A8B8C;" points="145.914,45.524 162.32,36.053 162.321,45.524 145.914,45.524 				"/>
			</g>
			<polyline style="fill:#7A7A7A;" points="178.727,45.524 162.322,36.053 162.321,45.524 178.727,45.524 			"/>
		</g>
	</g>
	<g>
		<g>
			<g>
				<path style="fill:#8A8B8C;" d="M200.445,42.766c0,1.568-1.232,2.544-3.216,2.544h-0.049c-1.048,0-2.134-0.268-2.973-0.729
					l-0.334-0.188v-1.776l0.969,0.543c0.648,0.362,1.516,0.578,2.323,0.578c1.126,0,1.697-0.323,1.697-0.96
					c0-0.734-0.599-1.01-1.965-1.463c-1.313-0.433-2.945-0.975-2.945-2.82c0-1.522,1.241-2.543,3.089-2.543
					c0.903,0,1.85,0.228,2.533,0.608l0.334,0.187v1.79l-0.978-0.563c-0.465-0.268-1.199-0.449-1.821-0.449h-0.047
					c-0.365,0-1.527,0.069-1.527,0.971c0,0.654,0.574,0.914,1.888,1.346C198.698,40.263,200.445,40.84,200.445,42.766z"/>
			</g>
			<g>
				<path style="fill:#8A8B8C;" d="M208.914,42.688v1.796l-0.325,0.188c-0.716,0.418-1.619,0.638-2.609,0.638
					c-2.325,0-4.679-1.572-4.679-4.579c0-3.104,2.404-4.779,4.667-4.779c0.92,0,1.813,0.221,2.516,0.621l0.329,0.19v1.793
					l-0.98-0.573c-0.5-0.293-1.165-0.459-1.831-0.459c-1.501,0-3.117,1.003-3.117,3.207c0,2.076,1.576,3.007,3.141,3.007
					c0.747,0,1.37-0.153,1.904-0.468L208.914,42.688z"/>
			</g>
			<g>
				<polygon style="fill:#8A8B8C;" points="217.897,36.061 217.897,45.199 216.313,45.199 216.313,41.395 211.945,41.395 
					211.945,45.199 210.362,45.199 210.362,36.061 211.945,36.061 211.945,39.82 216.313,39.82 216.313,36.061 				"/>
			</g>
			<g>
				<polygon style="fill:#8A8B8C;" points="226.557,43.624 226.557,45.199 220.062,45.199 220.062,36.061 226.456,36.061 
					226.456,37.636 221.646,37.636 221.646,39.82 226.12,39.82 226.12,41.395 221.646,41.395 221.646,43.624 				"/>
			</g>
			<g>
				<polygon style="fill:#8A8B8C;" points="234.578,43.624 234.578,45.199 228.207,45.199 228.207,36.061 229.79,36.061 
					229.79,43.624 				"/>
			</g>
			<g>
				<polygon style="fill:#8A8B8C;" points="242.141,43.624 242.141,45.199 235.769,45.199 235.769,36.061 237.353,36.061 
					237.353,43.624 				"/>
			</g>
			<g>
				<polygon style="fill:#8A8B8C;" points="249.825,43.624 249.825,45.199 243.331,45.199 243.331,36.061 249.724,36.061 
					249.724,37.636 244.915,37.636 244.915,39.82 249.39,39.82 249.39,41.395 244.915,41.395 244.915,43.624 				"/>
			</g>
			<g>
				<path style="fill:#8A8B8C;" d="M256.571,41.658c1.187-0.433,1.902-1.399,1.902-2.672c0-2.02-1.71-2.926-3.404-2.926h-3.593
					v9.139h1.583v-3.292h1.642l2.977,3.292h2.109L256.571,41.658z M256.89,38.986c0,1.174-1.134,1.35-1.809,1.35h-2.021v-2.7h2.021
					C255.625,37.636,256.89,37.766,256.89,38.986z"/>
			</g>
		</g>
		<g>
			<g>
				<polygon style="fill:#999A9B;" points="199.246,48.174 199.246,49.188 197.069,49.188 197.069,54.658 196.047,54.658 
					196.047,49.188 193.873,49.188 193.873,48.174 				"/>
			</g>
			<g>
				<polygon style="fill:#999A9B;" points="205.587,53.643 205.587,54.658 201.015,54.658 201.015,48.174 205.515,48.174 
					205.515,49.188 202.036,49.188 202.036,50.895 205.271,50.895 205.271,51.904 202.036,51.904 202.036,53.643 				"/>
			</g>
			<g>
				<path style="fill:#999A9B;" d="M210.464,48.174h-0.76l-2.98,6.484h1.119l0.8-1.742h2.873l0.8,1.742h1.118L210.464,48.174z
					 M209.108,51.902l0.979-2.135l0.98,2.135H209.108z"/>
			</g>
			<g>
				<path style="fill:#999A9B;" d="M219.734,53.014v1.153l-0.202,0.117c-0.51,0.296-1.15,0.453-1.857,0.453
					c-1.65,0-3.321-1.116-3.321-3.25c0-2.204,1.708-3.392,3.313-3.392c0.655,0,1.29,0.154,1.79,0.441l0.204,0.117v1.154
					l-0.616-0.361c-0.369-0.217-0.861-0.342-1.353-0.342c-1.116,0-2.315,0.746-2.315,2.382c0,1.546,1.171,2.235,2.332,2.235
					c0.551,0,1.014-0.113,1.409-0.347L219.734,53.014z"/>
			</g>
			<g>
				<polygon style="fill:#999A9B;" points="227.039,48.174 227.039,54.658 226.019,54.658 226.019,51.904 222.736,51.904 
					222.736,54.658 221.714,54.658 221.714,48.174 222.736,48.174 222.736,50.895 226.019,50.895 226.019,48.174 				"/>
			</g>
			<g>
				<polygon style="fill:#999A9B;" points="234.107,53.643 234.107,54.658 229.536,54.658 229.536,48.174 234.036,48.174 
					234.036,49.188 230.558,49.188 230.558,50.895 233.792,50.895 233.792,51.904 230.558,51.904 230.558,53.643 				"/>
			</g>
			<g>
				<path style="fill:#999A9B;" d="M239.747,52.129c0.884-0.285,1.423-0.979,1.423-1.902c0-1.417-1.204-2.053-2.399-2.053h-2.536
					v6.484h1.019v-2.381h1.279l2.152,2.381h1.356L239.747,52.129z M237.254,49.188h1.524c0.413,0,1.372,0.1,1.372,1.038
					c0,0.938-0.959,1.038-1.372,1.038h-1.524V49.188z"/>
			</g>
			<g>
				<polygon style="fill:#999A9B;" points="198.445,63.351 198.445,64.361 193.873,64.361 193.873,57.882 198.373,57.882 
					198.373,58.895 194.895,58.895 194.895,60.6 198.13,60.6 198.13,61.612 194.895,61.612 194.895,63.351 				"/>
			</g>
			<g>
				<path style="fill:#999A9B;" d="M202.591,57.882h-2.021v6.479h2.021c2.107,0,3.417-1.239,3.417-3.239
					C206.009,59.125,204.698,57.882,202.591,57.882z M202.591,63.351h-0.999v-4.456h0.999c1.545,0,2.396,0.791,2.396,2.228
					C204.987,62.558,204.137,63.351,202.591,63.351z"/>
			</g>
			<g>
				<path style="fill:#999A9B;" d="M213.345,57.882v4.122c0,1.551-0.969,2.44-2.657,2.44c-1.694,0-2.666-0.89-2.666-2.44v-4.122
					h1.021v4.112c0,0.671,0.187,1.436,1.645,1.436c1.452,0,1.638-0.765,1.638-1.436v-4.112H213.345z"/>
			</g>
			<g>
				<path style="fill:#999A9B;" d="M220.729,62.72v1.154l-0.202,0.116c-0.508,0.298-1.151,0.454-1.857,0.454
					c-1.65,0-3.321-1.116-3.321-3.25c0-2.202,1.708-3.392,3.315-3.392c0.652,0,1.288,0.154,1.788,0.441l0.206,0.117v1.154
					l-0.615-0.36c-0.371-0.216-0.864-0.343-1.356-0.343c-1.114,0-2.315,0.746-2.315,2.382c0,1.546,1.171,2.235,2.332,2.235
					c0.553,0,1.013-0.112,1.41-0.348L220.729,62.72z"/>
			</g>
			<g>
				<path style="fill:#999A9B;" d="M225.503,57.882h-0.76l-2.98,6.479h1.119l0.801-1.738h2.873l0.801,1.738h1.117L225.503,57.882z
					 M224.147,61.61l0.979-2.136l0.98,2.136H224.147z"/>
			</g>
			<g>
				<polygon style="fill:#999A9B;" points="233.989,57.882 233.989,58.895 231.813,58.895 231.813,64.361 230.791,64.361 
					230.791,58.895 228.617,58.895 228.617,57.882 				"/>
			</g>
			<g>
				<rect x="235.759" y="57.882" style="fill:#999A9B;" width="1.021" height="6.479"/>
			</g>
			<g>
				<path style="fill:#999A9B;" d="M242.177,57.803c-2.184,0-3.329,1.67-3.329,3.319c0,1.651,1.145,3.322,3.329,3.322
					c2.186,0,3.329-1.671,3.329-3.322C245.506,59.473,244.363,57.803,242.177,57.803z M242.177,63.43
					c-1.585,0-2.308-1.195-2.308-2.308c0-1.11,0.723-2.31,2.308-2.31c1.587,0,2.309,1.199,2.309,2.31
					C244.486,62.234,243.764,63.43,242.177,63.43z"/>
			</g>
			<g>
				<polygon style="fill:#999A9B;" points="252.9,57.882 252.9,64.361 252.111,64.361 248.598,59.834 248.598,64.361 
					247.577,64.361 247.577,57.882 248.356,57.882 251.88,62.404 251.88,57.882 				"/>
			</g>
			<g>
				<path style="fill:#999A9B;" d="M196.037,67.59h-2.164v6.479h1.021v-2.153h1.142c2.413,0,2.773-1.354,2.773-2.164
					C198.81,68.944,198.449,67.59,196.037,67.59z M196.046,70.906h-1.151v-2.304h1.151c1.543,0,1.742,0.614,1.742,1.149
					C197.788,70.289,197.589,70.906,196.046,70.906z"/>
			</g>
			<g>
				<path style="fill:#999A9B;" d="M204.271,71.545c0.884-0.289,1.423-0.982,1.423-1.904c0-1.418-1.206-2.051-2.399-2.051h-2.538
					v6.479h1.022v-2.378h1.277l2.152,2.378h1.357L204.271,71.545z M204.671,69.641c0,0.938-0.958,1.037-1.37,1.037h-1.523v-2.075
					h1.523C203.713,68.603,204.671,68.703,204.671,69.641z"/>
			</g>
			<g>
				<path style="fill:#999A9B;" d="M210.791,67.508c-2.184,0-3.329,1.672-3.329,3.323c0,1.65,1.145,3.319,3.329,3.319
					c2.187,0,3.332-1.669,3.332-3.319C214.123,69.18,212.978,67.508,210.791,67.508z M210.791,73.139
					c-1.584,0-2.308-1.196-2.308-2.308c0-1.112,0.724-2.311,2.308-2.311c1.587,0,2.31,1.198,2.31,2.311
					C213.101,71.942,212.378,73.139,210.791,73.139z"/>
			</g>
			<g>
				<path style="fill:#999A9B;" d="M221.362,70.297v3.322l-0.233,0.112c-0.569,0.271-1.246,0.419-1.908,0.419
					c-1.713,0-3.441-1.027-3.441-3.319c0-2.296,1.699-3.323,3.384-3.323c0.655,0,1.303,0.148,1.822,0.418l0.221,0.113v1.136
					l-0.602-0.323c-0.386-0.207-0.919-0.331-1.424-0.331c-1.151,0-2.381,0.604-2.381,2.311c0,1.699,1.255,2.308,2.43,2.308
					c0.393,0,0.778-0.066,1.112-0.188v-2.654H221.362z"/>
			</g>
			<g>
				<path style="fill:#999A9B;" d="M227.064,71.545c0.885-0.289,1.423-0.982,1.423-1.904c0-1.418-1.204-2.051-2.399-2.051h-2.537
					v6.479h1.021v-2.378h1.277l2.152,2.378h1.358L227.064,71.545z M224.573,68.603h1.524c0.412,0,1.37,0.101,1.37,1.038
					s-0.958,1.037-1.37,1.037h-1.524V68.603z"/>
			</g>
			<g>
				<path style="fill:#999A9B;" d="M233.477,67.59h-0.759l-2.981,6.479h1.12l0.801-1.738h2.873l0.8,1.738h1.12L233.477,67.59z
					 M232.122,71.316l0.979-2.135l0.981,2.135H232.122z"/>
			</g>
			<g>
				<polygon style="fill:#999A9B;" points="244.374,67.59 244.374,74.069 243.353,74.069 243.353,69.725 241.462,72.484 
					240.909,72.484 239.02,69.725 239.02,74.069 237.999,74.069 237.999,67.59 238.778,67.59 241.185,71.1 243.596,67.59 				"/>
			</g>
		</g>
	</g>
</g>
<g id="MITLogo_x5F_Off">
</g>
</svg>
